<svg version="1.1" id="Layer_1" xmlns="http://www.w3.org/2000/svg" xmlns:xlink="http://www.w3.org/1999/xlink" x="0px" y="0px"
	 width="100%" viewBox="0 0 512 512" enable-background="new 0 0 512 512" xml:space="preserve">
<path fill="#000000" opacity="1.000000" stroke="none" 
	d="
M121.322777,244.317871 
	C161.445068,204.291077 201.333633,164.524902 241.196579,124.733047 
	C250.383347,115.562668 263.309784,115.159607 272.321381,124.162971 
	C332.916687,184.702911 393.456696,245.298172 454.019958,305.870209 
	C461.768036,313.619476 463.300354,326.789978 454.322540,335.748749 
	C435.801331,354.230743 417.419922,372.853394 398.825623,391.261230 
	C391.086456,398.922760 377.590820,397.670288 368.774292,388.857422 
	C333.530457,353.628204 298.298401,318.387238 263.035217,283.177368 
	C261.180328,281.325287 259.599365,279.102570 257.058533,277.995483 
	C254.848053,278.767212 253.556076,280.582184 252.053940,282.082611 
	C216.208893,317.887024 180.380692,353.708282 144.563278,389.540344 
	C135.874039,398.233185 122.873329,398.730682 114.179848,390.159912 
	C95.666145,371.907471 77.302261,353.501282 59.022045,335.014618 
	C51.131481,327.034943 51.953098,313.829071 60.350269,305.436218 
	C80.621590,285.175354 100.840004,264.861572 121.322777,244.317871 
z"/>
</svg>