<svg version="1.1" id="Layer_1" xmlns="http://www.w3.org/2000/svg" xmlns:xlink="http://www.w3.org/1999/xlink" x="0px" y="0px"
	 width="100%" viewBox="0 0 150 181" enable-background="new 0 0 150 181" xml:space="preserve">
<path fill="#FEFEFD" opacity="1.000000" stroke="none" 
	d="
M1.000000,73.000000 
	C1.000000,48.666676 1.000000,24.833347 1.000000,1.000016 
	C50.999981,1.000011 100.999962,1.000011 150.999954,1.000005 
	C150.999969,61.333294 150.999969,121.666588 150.999985,181.999908 
	C101.000053,181.999939 51.000111,181.999939 1.000082,181.999969 
	C1.000000,145.833328 1.000000,109.666664 1.000000,73.000000 
M61.999542,110.000305 
	C61.999542,110.000305 61.986092,110.009880 61.718826,109.531448 
	C61.386276,109.402908 61.053722,109.274376 60.189846,109.084229 
	C59.749813,108.803017 59.309784,108.521805 58.900425,107.602310 
	C58.252655,107.444977 57.604881,107.287643 56.324402,107.035683 
	C55.549690,106.688644 54.774975,106.341599 53.672031,105.500839 
	C53.119293,105.335083 52.566551,105.169319 51.998062,105.004692 
	C51.998062,105.004692 51.991112,104.990616 51.654846,104.491829 
	C51.088982,104.342567 50.523113,104.193306 49.451256,103.990799 
	C49.289974,103.938347 49.128696,103.885902 48.603386,103.395500 
	C48.055847,103.275154 47.508308,103.154808 46.272690,102.974815 
	C45.187160,102.599152 44.101631,102.223488 42.931908,101.280418 
	C42.278347,101.229027 41.624783,101.177635 40.202499,101.101074 
	C38.468895,100.727722 36.735291,100.354370 34.881584,99.292442 
	C33.574509,99.251938 32.267429,99.211433 30.157015,99.170448 
	C29.094498,99.051270 28.031979,98.932083 26.680090,98.436768 
	C26.136415,98.527756 25.592741,98.618744 24.290751,98.804077 
	C23.538828,98.705177 22.786903,98.606277 21.763308,97.870552 
	C17.533543,96.377502 16.440361,96.581635 15.914110,99.638840 
	C15.834014,100.083115 15.753917,100.527397 14.953790,101.237846 
	C14.651505,101.793617 14.086613,102.348610 14.084979,102.905266 
	C14.030862,121.350449 14.000657,139.795975 14.113166,158.240555 
	C14.118651,159.139923 15.444482,160.031219 17.072523,160.969345 
	C28.733513,160.878906 40.394505,160.788452 52.906506,160.853317 
	C54.920765,160.812393 56.935024,160.771469 59.860931,160.941574 
	C63.604675,160.849930 67.348419,160.758301 71.805717,160.865250 
	C72.540146,160.962158 73.274582,161.059067 74.222092,161.446121 
	C74.485268,161.307983 74.748444,161.169861 75.505981,160.806839 
	C75.682884,160.768417 75.859795,160.729980 76.516434,160.936264 
	C76.680176,161.009872 76.843918,161.083466 77.647385,161.680908 
	C96.041748,161.778809 114.436081,161.888397 132.830582,161.930389 
	C133.542191,161.932022 134.255280,161.284256 135.073883,160.460480 
	C135.073883,160.460480 134.908951,159.998795 135.128693,159.082565 
	C135.139389,140.189438 135.126480,121.296211 135.191330,102.403267 
	C135.199234,100.102386 135.065125,98.341476 131.231247,99.003868 
	C128.823364,99.375671 126.415497,99.747475 123.190666,100.003960 
	C120.806389,100.396568 118.422104,100.789177 115.230858,101.104721 
	C110.079628,102.648552 104.928406,104.192383 99.147636,105.768906 
	C98.534698,105.899826 97.921768,106.030746 96.499939,106.048836 
	C94.898857,106.199547 93.297783,106.350258 91.340935,106.534454 
	C91.240044,105.417847 91.141006,104.321716 91.355217,102.943489 
	C91.355217,102.943489 91.775024,102.905319 92.283669,102.871117 
	C92.523796,102.643372 92.763916,102.415619 93.311295,101.909485 
	C93.311295,101.909485 93.724213,101.872070 94.510376,101.964516 
	C95.672310,101.316093 96.834244,100.667671 98.277122,99.796989 
	C98.277122,99.796989 98.633850,99.829781 99.466400,99.951012 
	C100.978226,99.322189 102.490051,98.693367 104.537750,97.770874 
	C105.129852,97.709618 105.721962,97.648361 107.249336,97.823479 
	C109.545677,97.356117 112.672890,99.768974 114.425758,95.476555 
	C115.289154,94.985214 116.152550,94.493866 117.490387,93.703758 
	C117.610420,93.361221 117.730453,93.018684 117.865067,92.303352 
	C117.865067,92.303352 118.098213,92.012085 118.854591,91.834862 
	C119.110924,90.663429 119.367256,89.492004 119.591248,87.835548 
	C119.666016,87.508438 119.828209,87.232773 120.812569,86.853996 
	C121.165024,85.476601 121.517479,84.099213 121.858292,82.325340 
	C121.858292,82.325340 122.080452,81.996750 122.407745,81.840553 
	C122.470230,81.738304 122.610168,81.589226 122.581627,81.542015 
	C122.466064,81.350883 122.298653,81.191093 121.928352,80.657417 
	C121.928352,80.657417 121.851715,80.239449 121.871887,79.612091 
	C121.495384,79.237152 121.118881,78.862213 120.742378,78.487274 
	C120.506516,79.024521 120.270645,79.561775 119.467552,80.332657 
	C118.865898,80.346107 118.264236,80.359558 116.938873,80.160629 
	C116.293640,80.430656 115.648399,80.700684 114.683891,81.178375 
	C114.683891,81.178375 114.304459,81.145454 113.653412,81.053093 
	C113.106339,81.345375 112.559273,81.637657 111.594139,82.184265 
	C111.291534,82.346367 110.973480,82.386742 109.786369,82.133080 
	C108.556580,82.803688 107.326797,83.474297 106.022255,84.024269 
	C106.022255,84.024269 106.129639,84.117058 105.342163,84.021049 
	C104.287521,84.757263 103.232880,85.493477 101.997246,86.086395 
	C101.997246,86.086395 102.198586,86.199242 101.456627,86.073662 
	C100.658417,86.747536 99.860199,87.421410 99.023064,88.009247 
	C99.023064,88.009247 99.100601,88.063126 98.611221,88.147430 
	C98.292580,88.294281 98.073387,88.532600 97.932526,88.959702 
	C97.932526,88.959702 97.841614,88.919098 97.097633,88.924652 
	C92.480713,89.647308 89.839851,92.385017 88.988312,96.978149 
	C88.988312,96.978149 88.913445,96.969696 88.477005,97.182053 
	C88.205009,97.391792 88.049110,97.667252 88.000000,98.000000 
	C88.000000,98.000000 88.008682,98.009064 87.532784,98.209221 
	C87.374199,98.504242 87.215607,98.799255 87.015358,99.019180 
	C87.015358,99.019180 87.095459,99.050148 86.569878,99.274818 
	C86.420860,99.611748 86.271835,99.948669 86.040993,100.705147 
	C86.040993,100.705147 85.730927,100.999374 85.346954,101.183914 
	C85.113365,101.377678 84.991005,101.626213 85.001808,101.990067 
	C85.001808,101.990067 84.937408,101.989807 84.490631,102.200188 
	C84.215302,102.416611 84.060661,102.699120 83.997093,103.003769 
	C83.997093,103.003769 84.046150,103.023651 83.566544,103.237213 
	C83.395958,103.533417 83.225365,103.829620 82.989510,104.749031 
	C82.982513,105.166306 82.975517,105.583572 82.261673,106.068489 
	C80.997971,107.601982 79.734268,109.135475 78.470573,110.668976 
	C80.326988,110.486450 82.183556,110.305412 84.039688,110.120018 
	C84.362328,110.087791 84.683128,110.037247 85.008583,110.683701 
	C84.930016,111.364418 84.851456,112.045135 84.235924,112.896866 
	C83.776642,113.206100 83.317352,113.515343 82.188271,113.925232 
	C81.416954,114.574791 80.645638,115.224358 79.177483,115.956810 
	C77.760147,117.020767 76.342804,118.084717 74.317024,118.907097 
	C72.829422,117.694405 71.341820,116.481705 70.181664,114.605362 
	C71.438843,113.687424 72.696014,112.769485 74.685280,111.317009 
	C72.111954,108.072067 69.694572,105.023758 66.965500,101.701210 
	C66.965500,101.701210 66.880440,101.294853 66.768661,100.732933 
	C66.473564,100.507858 66.178467,100.282791 65.978058,100.025215 
	C65.978058,100.025215 65.917778,100.105141 65.959526,99.328308 
	C65.163498,98.613548 64.367470,97.898796 63.030682,96.857582 
	C62.011200,95.778427 60.991718,94.699272 59.829163,93.316307 
	C59.686462,93.132126 59.502834,93.008942 58.741470,92.748512 
	C58.503132,92.460304 58.264790,92.172104 57.806858,91.463562 
	C57.597172,91.203224 57.326378,91.053062 56.999134,91.000565 
	C56.999134,91.000565 56.986801,91.007416 56.709145,90.526176 
	C56.374020,90.392906 56.038895,90.259644 55.307804,90.060524 
	C55.044861,89.942390 54.875984,89.744125 54.844013,88.682236 
	C53.130581,87.831894 51.417145,86.981560 49.294056,86.088417 
	C49.294056,86.088417 48.991783,85.808640 48.694424,85.395370 
	C48.377346,85.299377 48.060268,85.203384 47.314251,85.075371 
	C47.314251,85.075371 46.986473,84.796844 46.670067,84.385338 
	C46.342846,84.299881 46.015625,84.214432 45.302570,84.123795 
	C45.302570,84.123795 45.014473,83.867081 44.837673,83.136421 
	C43.440964,82.809128 42.044254,82.481834 40.287472,82.191811 
	C40.287472,82.191811 39.997528,81.975075 39.925129,81.367905 
	C39.248375,81.322594 38.571625,81.277290 37.234974,81.166718 
	C36.813896,81.034714 36.392822,80.902702 35.543365,80.369171 
	C35.159264,80.343971 34.775158,80.318779 33.911480,80.465050 
	C33.599026,80.348869 33.286568,80.232681 32.873810,79.385979 
	C31.087208,79.141327 29.300606,78.896683 27.514004,78.652031 
	C27.260807,79.216003 27.007610,79.779984 26.754414,80.343956 
	C27.867958,81.892151 28.981501,83.440346 30.299091,85.187958 
	C30.299091,85.187958 30.212046,85.459663 30.088419,86.291298 
	C30.716267,87.528389 31.344116,88.765488 32.193985,90.245354 
	C32.193985,90.245354 32.167152,90.573242 32.182388,91.150604 
	C32.417767,91.441521 32.653145,91.732437 32.994850,92.054062 
	C32.994850,92.054062 32.955708,92.157578 33.075836,92.499542 
	C33.198326,92.720573 33.377895,92.875420 34.159962,93.355324 
	C34.450535,93.693657 34.741108,94.031990 35.179070,94.669174 
	C35.319946,94.851326 35.500191,94.977074 36.235928,95.227684 
	C36.496433,95.476395 36.756939,95.725105 37.111504,96.662872 
	C38.410263,96.767426 39.709019,96.871971 41.679405,96.928352 
	C42.116158,97.021622 42.552910,97.114891 43.476906,97.726768 
	C46.076405,98.440781 48.675907,99.154793 51.678715,99.841354 
	C51.678715,99.841354 52.004833,100.080215 52.157383,100.809692 
	C53.523285,101.163902 54.889187,101.518112 56.700237,101.917618 
	C56.700237,101.917618 57.028030,102.222183 57.325893,102.629387 
	C57.643913,102.710510 57.961929,102.791626 58.822887,102.924706 
	C59.229946,103.257767 59.637009,103.590828 60.134853,104.650948 
	C61.417313,105.093475 62.699776,105.536003 64.021561,105.987335 
	C64.021561,105.987335 64.024956,106.027473 64.339523,106.532272 
	C64.902817,106.673378 65.466118,106.814484 66.004097,106.997162 
	C66.004097,106.997162 66.042656,106.967125 66.078773,107.661400 
	C66.372963,109.524803 66.667152,111.388199 66.378616,113.080643 
	C65.918472,112.715759 65.458336,112.350883 64.748177,111.525970 
	C64.440117,111.378738 64.132050,111.231506 63.378574,110.991768 
	C63.378574,110.991768 62.976948,110.778122 62.746300,110.413246 
	C62.541393,110.192146 62.289852,110.059189 61.999542,110.000305 
M68.801605,85.847977 
	C69.577240,87.506653 70.324852,90.562660 71.133415,90.578873 
	C74.401192,90.644402 77.692055,89.796494 80.956810,89.190948 
	C81.155098,89.154175 81.174446,88.287720 81.322533,87.821770 
	C81.943024,85.869316 82.580841,83.922379 83.212318,81.973419 
	C83.330444,77.690468 79.949188,78.938843 76.099159,79.017570 
	C72.843910,79.017570 69.588654,79.017570 66.333405,79.017570 
	C65.936081,79.384834 65.538757,79.752106 65.141434,80.119370 
	C66.396599,81.805603 67.651756,83.491844 68.801605,85.847977 
M97.910828,32.367161 
	C97.492355,31.957964 97.073883,31.548767 96.400955,30.549969 
	C91.954742,28.172712 87.727921,25.043591 82.991333,23.661501 
	C79.350937,22.599266 74.907288,20.310524 70.266640,23.918255 
	C69.188080,23.985361 68.109528,24.052467 66.409554,23.875105 
	C58.857170,24.143848 53.611668,28.722382 48.918400,33.808235 
	C41.832806,41.486519 38.153976,50.520592 39.260963,61.129868 
	C47.758472,62.467598 48.760189,61.984795 48.857231,56.301098 
	C48.855408,55.855690 48.853580,55.410282 49.299858,54.405289 
	C52.261551,48.637482 55.223240,42.869675 58.596657,36.958572 
	C58.864815,36.811378 59.049046,36.593288 59.698200,36.105110 
	C59.949871,35.814793 60.201542,35.524475 60.979797,35.138466 
	C61.297394,34.980148 61.614990,34.821831 62.642487,34.595825 
	C65.012177,33.701866 67.381866,32.807911 70.682266,31.965492 
	C79.430115,30.952824 86.810989,33.849545 93.394661,40.452515 
	C96.126282,47.067883 98.857903,53.683250 101.748924,60.684666 
	C103.611351,60.684666 106.504128,60.684666 109.796547,60.684666 
	C109.023109,49.760223 106.568176,40.078899 98.104446,32.865322 
	C98.104446,32.865322 98.124680,32.915295 97.910828,32.367161 
M78.158524,46.065346 
	C80.400276,46.683266 82.679764,49.673828 85.010086,45.813354 
	C83.172852,40.918125 78.364655,39.741653 74.545982,40.226471 
	C70.954773,40.682411 66.684448,43.306114 64.588020,46.292419 
	C61.278458,51.006798 63.700928,57.069801 68.325058,58.781822 
	C73.124847,60.558876 73.607765,61.906540 71.194496,66.791000 
	C69.354240,66.115776 67.513992,65.440559 65.099434,64.554611 
	C67.565895,71.334549 69.823570,72.468529 77.649200,71.531487 
	C78.935074,71.276772 80.298767,71.214172 81.491997,70.730766 
	C84.866791,69.363586 88.230598,63.176838 87.382851,59.591095 
	C86.386398,55.376389 83.664925,53.166149 78.454559,53.253574 
	C77.981873,51.836502 77.509193,50.419434 77.406860,48.490543 
	C77.395462,47.676861 77.384071,46.863174 78.158524,46.065346 
z"/>
<path fill="#E7B03D" opacity="1.000000" stroke="none" 
	d="
M76.959427,71.239136 
	C69.823570,72.468529 67.565895,71.334549 65.099434,64.554611 
	C67.513992,65.440559 69.354240,66.115776 71.193092,66.786293 
	C73.607765,61.906540 73.124847,60.558876 68.325058,58.781822 
	C63.700928,57.069801 61.278458,51.006798 64.588020,46.292419 
	C66.684448,43.306114 70.954773,40.682411 74.545982,40.226471 
	C78.364655,39.741653 83.172852,40.918125 85.010086,45.813354 
	C82.679764,49.673828 80.400276,46.683266 77.592545,46.238232 
	C77.029884,47.274868 77.033195,48.138615 77.036514,49.002365 
	C77.509193,50.419434 77.981873,51.836502 78.994186,53.658981 
	C85.823479,58.072800 86.911697,64.241348 81.930397,68.493622 
	C80.519974,69.697632 78.629654,70.339470 76.959427,71.239136 
M78.268410,58.282814 
	C77.779114,60.992996 77.289818,63.703182 76.645500,67.272011 
	C81.863808,64.404694 82.189255,61.963543 78.268410,58.282814 
z"/>
<path fill="#05525C" opacity="1.000000" stroke="none" 
	d="
M124.007622,100.119286 
	C126.415497,99.747475 128.823364,99.375671 131.890991,99.370590 
	C133.034485,101.539009 133.927475,103.338219 133.938461,105.142792 
	C134.043655,122.428009 133.999863,139.714142 133.651154,156.946625 
	C128.895523,153.803635 125.618820,150.281342 126.892570,144.167938 
	C127.292709,142.247498 126.422729,140.062424 126.048393,137.536621 
	C126.020065,128.717438 126.077446,120.360115 126.377922,111.753525 
	C127.610641,109.540802 128.600266,107.577339 129.606689,105.580566 
	C127.777199,103.796097 125.892410,101.957687 124.007622,100.119286 
z"/>
<path fill="#13A256" opacity="1.000000" stroke="none" 
	d="
M106.314064,97.587105 
	C105.721962,97.648361 105.129852,97.709618 103.909599,97.878952 
	C101.732246,98.601280 100.183052,99.215530 98.633850,99.829781 
	C98.633850,99.829781 98.277122,99.796989 97.793045,99.890182 
	C96.114052,100.612938 94.919128,101.242508 93.724213,101.872070 
	C93.724213,101.872070 93.311295,101.909485 92.895691,102.044411 
	C92.245064,102.421326 92.010040,102.663322 91.775024,102.905319 
	C91.775024,102.905319 91.355217,102.943489 90.849304,103.139053 
	C87.885094,104.223351 85.426804,105.112099 82.968521,106.000847 
	C82.975517,105.583572 82.982513,105.166306 83.273666,104.342857 
	C83.720589,103.632339 83.883369,103.327995 84.046150,103.023651 
	C84.046150,103.023651 83.997093,103.003769 84.257820,102.941254 
	C84.658165,102.582428 84.797791,102.286118 84.937408,101.989807 
	C84.937408,101.989807 85.001808,101.990067 85.213776,101.899910 
	C85.727943,101.615158 85.829674,101.345032 85.730927,100.999374 
	C85.730927,100.999374 86.040993,100.705147 86.340714,100.380310 
	C86.792107,99.720367 86.943779,99.385262 87.095459,99.050148 
	C87.095459,99.050148 87.015358,99.019180 87.289711,98.978203 
	C87.712265,98.627838 87.860474,98.318451 88.008682,98.009064 
	C88.008682,98.009064 88.000000,98.000000 88.253494,97.935043 
	C88.642479,97.569962 88.777962,97.269829 88.913445,96.969696 
	C88.913445,96.969696 88.988312,96.978149 89.273163,96.811676 
	C92.319221,94.069832 95.080414,91.494461 97.841614,88.919098 
	C97.841614,88.919098 97.932526,88.959702 98.202614,88.900757 
	C98.681999,88.582253 98.891296,88.322693 99.100601,88.063126 
	C99.100601,88.063126 99.023064,88.009247 99.356026,88.010941 
	C100.525520,87.408173 101.362053,86.803711 102.198593,86.199249 
	C102.198586,86.199242 101.997246,86.086395 102.413406,86.115334 
	C103.929596,85.468536 105.029617,84.792793 106.129639,84.117050 
	C106.129639,84.117058 106.022255,84.024269 106.412483,84.066467 
	C108.081802,83.507576 109.360893,82.906479 110.639977,82.305374 
	C110.973480,82.386742 111.291534,82.346367 112.124863,82.100220 
	C113.205208,81.725929 113.754829,81.435692 114.304459,81.145454 
	C114.304459,81.145454 114.683891,81.178375 115.194931,81.121674 
	C116.358177,80.834312 117.010376,80.603661 117.662582,80.373001 
	C118.264236,80.359558 118.865898,80.346107 120.044037,80.314117 
	C121.030922,80.276863 121.441322,80.258156 121.851715,80.239449 
	C121.851715,80.239449 121.928352,80.657417 121.956345,81.078026 
	C122.016388,81.664680 122.048424,81.830719 122.080452,81.996750 
	C122.080452,81.996750 121.858292,82.325340 121.591866,82.733582 
	C120.909569,84.430740 120.493698,85.719650 120.077827,87.008568 
	C119.828209,87.232773 119.666016,87.508438 119.367073,88.324608 
	C118.794670,89.879807 118.446442,90.945946 118.098206,92.012085 
	C118.098213,92.012085 117.865067,92.303352 117.609245,92.624893 
	C117.240929,93.298462 117.128433,93.650490 117.015945,94.002518 
	C116.152550,94.493866 115.289154,94.985214 113.803543,95.647324 
	C110.892235,96.407768 108.603149,96.997437 106.314064,97.587105 
z"/>
<path fill="#D29444" opacity="1.000000" stroke="none" 
	d="
M76.036705,160.691528 
	C75.859795,160.729980 75.682884,160.768417 75.000610,160.890106 
	C74.333168,161.034225 74.171089,161.095108 74.009010,161.155975 
	C73.274582,161.059067 72.540146,160.962158 71.408524,160.508667 
	C70.682999,159.771667 70.354675,159.391235 70.028099,158.595383 
	C70.026001,156.795303 70.022163,155.410629 70.028778,153.772278 
	C70.037628,153.349503 70.036026,153.180435 70.267082,152.673203 
	C70.598618,144.297836 70.697502,136.260651 70.840317,127.981201 
	C70.846863,127.387001 70.675591,127.121536 70.157593,126.749817 
	C69.534904,126.156044 69.125046,125.755005 68.812714,125.026550 
	C68.939514,124.474297 68.968781,124.249474 69.289154,123.890930 
	C70.721146,122.508865 71.862030,121.260506 73.330292,120.009171 
	C74.092674,119.977844 74.527679,119.949486 75.185005,119.927498 
	C75.407326,119.933868 75.850945,119.901169 75.922134,120.229568 
	C77.296867,122.240784 78.600403,123.923592 79.846359,126.097122 
	C79.832489,136.170120 79.876205,145.752380 79.757507,155.592911 
	C78.408958,157.464615 77.222832,159.078079 76.036705,160.691528 
z"/>
<path fill="#F3B31A" opacity="1.000000" stroke="none" 
	d="
M67.030968,24.119574 
	C68.109528,24.052467 69.188080,23.985361 70.987907,24.007271 
	C72.136940,24.152166 72.564697,24.208048 72.994850,24.636030 
	C73.324493,26.940771 73.651741,28.873413 73.564186,30.844954 
	C71.045959,31.202946 68.942535,31.522038 66.485825,31.882339 
	C64.732544,32.836872 63.332565,33.750195 61.932587,34.663517 
	C61.614990,34.821831 61.297394,34.980148 60.394058,35.208420 
	C59.588657,35.620346 59.368999,35.962322 59.149345,36.304298 
	C59.049046,36.593288 58.864815,36.811378 58.028702,37.020599 
	C54.884449,40.589787 51.953938,43.902225 49.875439,47.683056 
	C48.771549,49.691055 49.145123,52.511288 48.851757,54.964874 
	C48.853580,55.410282 48.855408,55.855690 48.416332,56.728779 
	C46.398468,60.169147 44.194698,60.926014 41.276337,59.228378 
	C39.749573,46.293015 49.304073,32.852535 59.528492,27.946278 
	C62.058777,26.732103 64.531685,25.398355 67.030968,24.119574 
z"/>
<path fill="#D99744" opacity="1.000000" stroke="none" 
	d="
M98.151001,32.837006 
	C106.568176,40.078899 109.023109,49.760223 109.796547,60.684666 
	C106.504128,60.684666 103.611351,60.684666 101.748924,60.684666 
	C98.857903,53.683250 96.126282,47.067883 93.458435,39.882248 
	C95.065140,37.153656 96.608070,34.995331 98.151001,32.837006 
z"/>
<path fill="#EBC565" opacity="1.000000" stroke="none" 
	d="
M52.055492,160.697998 
	C40.394505,160.788452 28.733513,160.878906 16.552650,160.488434 
	C15.994583,157.527145 15.934443,155.046875 15.921728,152.566376 
	C15.833572,135.368164 15.755280,118.169914 15.673820,100.971672 
	C15.753917,100.527397 15.834014,100.083115 16.359951,99.275169 
	C18.548853,98.776794 20.291916,98.642090 22.034979,98.507385 
	C22.786903,98.606277 23.538828,98.705177 24.982639,98.848267 
	C26.106171,98.865936 26.537817,98.839417 26.969461,98.812904 
	C28.031979,98.932083 29.094498,99.051270 30.823978,99.400604 
	C32.661190,99.747513 33.831436,99.864265 35.001686,99.981018 
	C36.735291,100.354370 38.468895,100.727722 40.772942,101.335098 
	C41.900959,101.662025 42.458530,101.754921 43.016102,101.847816 
	C44.101631,102.223488 45.187160,102.599152 46.795982,103.233833 
	C47.868652,103.606384 48.418034,103.719925 48.967415,103.833466 
	C49.128696,103.885902 49.289974,103.938347 49.874077,104.262665 
	C50.861637,104.686554 51.426373,104.838585 51.991112,104.990616 
	C51.991112,104.990616 51.998062,105.004692 52.032997,105.214600 
	C52.067936,105.424515 52.155170,105.840027 52.077911,105.921135 
	C52.000652,106.002243 51.846779,106.165070 51.459702,106.116310 
	C48.381649,105.372612 45.690674,104.677673 42.685909,103.848557 
	C40.580151,103.471451 38.788181,103.228531 36.598953,102.986694 
	C34.637711,102.650024 33.076458,102.299004 31.509193,101.977272 
	C28.237127,101.305611 24.976936,100.558121 21.683285,100.015152 
	C18.945827,99.563858 17.848713,100.864845 17.936640,103.663048 
	C18.086672,108.437614 17.978067,113.220299 17.974258,118.468246 
	C17.696318,131.029892 17.334455,143.121933 17.204966,155.216461 
	C17.169033,158.572540 19.133793,160.175552 22.713072,160.008575 
	C32.138008,159.568893 41.572445,159.332855 51.228485,159.151886 
	C51.654411,159.758041 51.854950,160.228027 52.055492,160.697998 
z"/>
<path fill="#18AD57" opacity="1.000000" stroke="none" 
	d="
M45.014473,83.867081 
	C45.014473,83.867081 45.302570,84.123795 45.640976,84.349174 
	C46.315075,84.648651 46.650776,84.722748 46.986473,84.796844 
	C46.986473,84.796844 47.314251,85.075371 47.658707,85.320526 
	C48.332706,85.646667 48.662243,85.727654 48.991783,85.808640 
	C48.991783,85.808640 49.294056,86.088417 49.692055,86.392189 
	C51.660427,87.619217 53.230801,88.542480 54.801174,89.465744 
	C54.875984,89.744125 55.044861,89.942390 55.635406,90.342239 
	C56.304276,90.751778 56.645538,90.879593 56.986801,91.007416 
	C56.986801,91.007416 56.999134,91.000565 57.082260,91.239731 
	C57.372112,91.784584 57.659134,91.919586 58.026451,91.883896 
	C58.264790,92.172104 58.503132,92.460304 59.031425,93.038460 
	C59.461483,93.597076 59.678436,93.694313 59.972237,93.620117 
	C60.991718,94.699272 62.011200,95.778427 63.407570,97.324104 
	C64.495567,98.562134 65.206673,99.333633 65.917778,100.105141 
	C65.917778,100.105141 65.978058,100.025215 65.994362,100.318680 
	C66.300591,100.839714 66.590515,101.067284 66.880440,101.294853 
	C66.880440,101.294853 66.965500,101.701210 67.121117,102.198685 
	C67.809601,104.026848 68.342468,105.357536 68.987022,106.967125 
	C67.913483,106.967125 66.978073,106.967125 66.042656,106.967125 
	C66.042656,106.967125 66.004097,106.997162 65.901016,106.692169 
	C65.206947,106.267273 64.615952,106.147369 64.024956,106.027473 
	C64.024956,106.027473 64.021561,105.987335 63.884640,105.669235 
	C62.513168,104.875381 61.278622,104.399635 60.044071,103.923889 
	C59.637009,103.590828 59.229946,103.257767 58.410015,102.684158 
	C57.674107,102.369804 57.351067,102.295998 57.028030,102.222183 
	C57.028030,102.222183 56.700237,101.917618 56.268402,101.625351 
	C54.559322,100.915466 53.282078,100.497841 52.004833,100.080215 
	C52.004833,100.080215 51.678715,99.841354 51.405762,99.634109 
	C51.132805,99.426857 50.983585,98.986801 51.207794,98.721420 
	C53.783810,98.848450 56.135616,99.240860 58.487423,99.633270 
	C55.508022,95.372772 52.240135,91.771461 48.466625,88.815659 
	C45.236996,86.285858 41.427868,84.495857 37.926266,82.284698 
	C37.977486,82.190735 38.011219,81.979378 38.344105,81.983170 
	C39.117168,81.982994 39.557350,81.979034 39.997528,81.975082 
	C39.997528,81.975075 40.287472,82.191811 40.695564,82.433868 
	C42.407265,83.072975 43.710869,83.470024 45.014473,83.867081 
z"/>
<path fill="#E9BE49" opacity="1.000000" stroke="none" 
	d="
M66.720261,23.997339 
	C64.531685,25.398355 62.058777,26.732103 59.528492,27.946278 
	C49.304073,32.852535 39.749573,46.293015 41.276337,59.228378 
	C44.194698,60.926014 46.398468,60.169147 48.311256,57.047455 
	C48.760189,61.984795 47.758472,62.467598 39.260963,61.129868 
	C38.153976,50.520592 41.832806,41.486519 48.918400,33.808235 
	C53.611668,28.722382 58.857170,24.143848 66.720261,23.997339 
z"/>
<path fill="#E2AB4B" opacity="1.000000" stroke="none" 
	d="
M98.127724,32.851166 
	C96.608070,34.995331 95.065140,37.153656 93.321167,39.561619 
	C86.810989,33.849545 79.430115,30.952824 69.856247,31.960068 
	C68.299866,31.916805 67.569489,31.878969 66.839119,31.841133 
	C68.942535,31.522038 71.045959,31.202946 74.007683,30.894714 
	C77.236305,30.945469 79.606628,30.985365 82.229416,31.290592 
	C84.933380,32.676331 87.323120,33.977798 89.861458,34.843624 
	C91.206078,35.302273 92.808945,35.003815 94.295227,35.047150 
	C93.971794,33.636669 94.114006,31.700893 93.232742,30.919693 
	C91.070930,29.003347 88.437294,27.619263 85.597572,26.008720 
	C82.468178,25.330412 79.734695,24.664415 76.669388,24.013939 
	C75.900726,24.100338 75.463898,24.171215 74.688133,24.202606 
	C73.896950,24.196722 73.444710,24.230326 72.992462,24.263931 
	C72.564697,24.208048 72.136940,24.152166 71.392532,24.039497 
	C74.907288,20.310524 79.350937,22.599266 82.991333,23.661501 
	C87.727921,25.043591 91.954742,28.172712 96.366394,31.059685 
	C96.929451,32.018032 97.527061,32.466663 98.124680,32.915295 
	C98.124680,32.915295 98.104446,32.865322 98.127724,32.851166 
z"/>
<path fill="#F0FBE7" opacity="1.000000" stroke="none" 
	d="
M15.313805,101.104759 
	C15.755280,118.169914 15.833572,135.368164 15.921728,152.566376 
	C15.934443,155.046875 15.994583,157.527145 16.094128,160.466904 
	C15.444482,160.031219 14.118651,159.139923 14.113166,158.240555 
	C14.000657,139.795975 14.030862,121.350449 14.084979,102.905266 
	C14.086613,102.348610 14.651505,101.793617 15.313805,101.104759 
z"/>
<path fill="#104854" opacity="1.000000" stroke="none" 
	d="
M77.017723,79.151749 
	C79.949188,78.938843 83.330444,77.690468 83.212318,81.973419 
	C82.580841,83.922379 81.943024,85.869316 81.322533,87.821770 
	C81.174446,88.287720 81.155098,89.154175 80.956810,89.190948 
	C77.692055,89.796494 74.401192,90.644402 71.133415,90.578873 
	C70.324852,90.562660 69.577240,87.506653 69.287308,85.449448 
	C73.899780,85.186844 78.079208,85.387459 77.017723,79.151749 
z"/>
<path fill="#085961" opacity="1.000000" stroke="none" 
	d="
M126.134094,137.998474 
	C126.422729,140.062424 127.292709,142.247498 126.892570,144.167938 
	C125.618820,150.281342 128.895523,153.803635 133.654327,157.278259 
	C134.306412,158.441772 134.607681,159.220276 134.908951,159.998795 
	C134.908951,159.998795 135.073883,160.460480 134.563812,160.707611 
	C130.681717,160.903687 127.309685,160.852600 123.664703,160.562988 
	C121.736137,160.044067 120.080536,159.763702 117.561684,159.337158 
	C120.122337,156.890594 122.049179,155.049606 124.398087,153.105011 
	C125.192535,151.897827 125.833549,150.807434 125.888634,149.688232 
	C126.080154,145.797043 126.068497,141.895859 126.134094,137.998474 
z"/>
<path fill="#F4BA45" opacity="1.000000" stroke="none" 
	d="
M52.480999,160.775665 
	C51.854950,160.228027 51.654411,159.758041 51.227005,158.733337 
	C50.999474,156.785721 50.998806,155.392868 51.466522,153.996872 
	C57.962711,154.004486 63.990520,154.015228 70.018326,154.025970 
	C70.022163,155.410629 70.026001,156.795303 69.570930,158.598434 
	C65.724442,159.588120 62.336864,160.159332 58.949284,160.730530 
	C56.935024,160.771469 54.920765,160.812393 52.480999,160.775665 
z"/>
<path fill="#117954" opacity="1.000000" stroke="none" 
	d="
M99.777184,105.736221 
	C104.928406,104.192383 110.079628,102.648552 115.796417,101.473083 
	C116.243080,104.216812 116.124184,106.592178 115.664398,109.154152 
	C110.563927,110.624176 105.804344,111.907585 101.171967,112.848808 
	C103.468513,111.259773 105.637863,110.012924 108.142204,108.573532 
	C106.288826,104.631325 102.799042,106.418793 99.975479,105.984467 
	C99.911018,105.900421 99.777184,105.736221 99.777184,105.736221 
z"/>
<path fill="#0E6160" opacity="1.000000" stroke="none" 
	d="
M116.005287,108.967529 
	C116.124184,106.592178 116.243080,104.216812 116.199905,101.511627 
	C118.422104,100.789177 120.806389,100.396568 123.599144,100.061623 
	C125.892410,101.957687 127.777199,103.796097 129.606689,105.580566 
	C128.600266,107.577339 127.610641,109.540802 126.295700,111.342545 
	C126.350510,108.603149 125.336418,107.637794 122.718605,108.127266 
	C120.505821,108.541008 118.244904,108.697296 116.005287,108.967529 
M120.484169,101.594330 
	C120.484169,101.594330 120.416954,101.486603 120.484169,101.594330 
z"/>
<path fill="#0D464D" opacity="1.000000" stroke="none" 
	d="
M135.018829,159.540680 
	C134.607681,159.220276 134.306412,158.441772 134.001953,157.331635 
	C133.999863,139.714142 134.043655,122.428009 133.938461,105.142792 
	C133.927475,103.338219 133.034485,101.539009 132.299332,99.451447 
	C135.065125,98.341476 135.199234,100.102386 135.191330,102.403267 
	C135.126480,121.296211 135.139389,140.189438 135.018829,159.540680 
z"/>
<path fill="#319663" opacity="1.000000" stroke="none" 
	d="
M76.276566,160.813904 
	C77.222832,159.078079 78.408958,157.464615 80.034805,155.293472 
	C81.354324,154.135315 82.200523,153.079056 83.119614,153.011292 
	C87.715424,152.672394 92.330360,152.592697 96.644638,152.643066 
	C94.208908,153.230453 92.067101,153.596634 89.488678,153.954773 
	C86.731842,154.107483 84.411621,154.268250 81.887077,154.443161 
	C83.272873,158.966949 85.587524,160.575607 89.490433,160.063477 
	C91.618065,159.784302 93.809128,159.988541 96.348457,159.990936 
	C97.478226,160.003571 98.231117,160.000046 98.993546,160.200455 
	C99.003067,160.404388 99.011795,160.812607 98.550316,160.903473 
	C91.061775,161.048584 84.034714,161.102814 77.007652,161.157043 
	C76.843918,161.083466 76.680176,161.009872 76.276566,160.813904 
z"/>
<path fill="#E2FBED" opacity="1.000000" stroke="none" 
	d="
M82.615097,106.034668 
	C85.426804,105.112099 87.885094,104.223351 90.692673,103.280098 
	C91.141006,104.321716 91.240044,105.417847 91.340935,106.534454 
	C93.297783,106.350258 94.898857,106.199547 96.839050,106.317230 
	C97.178169,106.585632 97.024879,107.001999 96.678261,107.012451 
	C94.913368,107.781570 93.495102,108.540230 91.774872,109.340935 
	C90.718613,109.670555 89.964310,109.958138 89.116486,110.142899 
	C89.022964,110.040070 88.830360,109.839607 88.816238,109.505234 
	C87.065765,107.320114 85.738403,107.334648 84.996490,110.003227 
	C84.999420,110.000542 85.004784,109.995163 85.004784,109.995163 
	C84.683128,110.037247 84.362328,110.087791 84.039688,110.120018 
	C82.183556,110.305412 80.326988,110.486450 78.470566,110.668976 
	C79.734268,109.135475 80.997971,107.601982 82.615097,106.034668 
z"/>
<path fill="#0A9951" opacity="1.000000" stroke="none" 
	d="
M76.558441,79.084656 
	C78.079208,85.387459 73.899780,85.186844 69.339966,85.114494 
	C67.651756,83.491844 66.396599,81.805603 65.141434,80.119370 
	C65.538757,79.752106 65.936081,79.384834 66.333405,79.017570 
	C69.588654,79.017570 72.843910,79.017570 76.558441,79.084656 
z"/>
<path fill="#31BD63" opacity="1.000000" stroke="none" 
	d="
M37.017448,95.973816 
	C36.756939,95.725105 36.496433,95.476395 35.956360,94.947922 
	C35.537338,94.405205 35.322300,94.305931 35.031677,94.370331 
	C34.741108,94.031990 34.450535,93.693657 33.872406,92.964790 
	C33.453278,92.317467 33.243561,92.178574 32.955708,92.157578 
	C32.955708,92.157578 32.994850,92.054062 32.934334,91.750061 
	C32.638264,91.155121 32.402710,90.864182 32.167152,90.573242 
	C32.167152,90.573242 32.193985,90.245354 32.089355,89.771858 
	C31.393833,88.018799 30.802940,86.739227 30.212048,85.459663 
	C30.212046,85.459663 30.299091,85.187958 30.200737,84.709641 
	C29.774759,83.032822 29.447140,81.834335 29.051058,80.385399 
	C30.510689,80.285355 31.742401,80.200920 32.974113,80.116501 
	C33.286568,80.232681 33.599026,80.348869 34.366447,80.580711 
	C35.204861,80.721146 35.588303,80.745918 35.971745,80.770691 
	C36.392822,80.902702 36.813896,81.034714 37.579506,81.388405 
	C37.924042,81.610092 38.011219,81.979378 38.011219,81.979378 
	C38.011219,81.979378 37.977486,82.190735 37.548569,82.185387 
	C35.673992,82.180038 34.228336,82.180038 31.577480,82.180038 
	C36.135418,86.514656 34.889412,93.496719 41.068642,95.887383 
	C40.983360,96.000191 40.799702,96.215279 40.419640,96.241158 
	C39.032200,96.169296 38.024826,96.071556 37.017448,95.973816 
z"/>
<path fill="#F0FBE7" opacity="1.000000" stroke="none" 
	d="
M77.327515,161.418976 
	C84.034714,161.102814 91.061775,161.048584 99.016724,160.956833 
	C107.942291,160.880051 115.939972,160.840775 123.937653,160.801514 
	C127.309685,160.852600 130.681717,160.903687 134.510712,160.946930 
	C134.255280,161.284256 133.542191,161.932022 132.830582,161.930389 
	C114.436081,161.888397 96.041748,161.778809 77.327515,161.418976 
z"/>
<path fill="#F0FBE7" opacity="1.000000" stroke="none" 
	d="
M66.060715,107.314262 
	C66.978073,106.967125 67.913483,106.967125 68.987022,106.967125 
	C68.342468,105.357536 67.809601,104.026848 67.276962,102.335808 
	C69.694572,105.023758 72.111954,108.072067 74.685280,111.317009 
	C72.696014,112.769485 71.438843,113.687424 69.724777,114.854492 
	C68.499046,114.486282 67.730194,113.868942 66.961349,113.251602 
	C66.667152,111.388199 66.372963,109.524803 66.060715,107.314262 
z"/>
<path fill="#DBB061" opacity="1.000000" stroke="none" 
	d="
M77.304314,71.385315 
	C78.629654,70.339470 80.519974,69.697632 81.930397,68.493622 
	C86.911697,64.241348 85.823479,58.072800 79.340240,53.845367 
	C83.664925,53.166149 86.386398,55.376389 87.382851,59.591095 
	C88.230598,63.176838 84.866791,69.363586 81.491997,70.730766 
	C80.298767,71.214172 78.935074,71.276772 77.304314,71.385315 
z"/>
<path fill="#EBC565" opacity="1.000000" stroke="none" 
	d="
M66.669983,113.166122 
	C67.730194,113.868942 68.499046,114.486282 69.561058,115.186310 
	C71.341820,116.481705 72.829422,117.694405 74.625664,119.220940 
	C74.934303,119.534782 74.962685,119.921127 74.962685,119.921127 
	C74.527679,119.949486 74.092674,119.977844 73.021133,119.847183 
	C65.538651,115.180458 58.692719,110.672760 51.846779,106.165070 
	C51.846779,106.165070 52.000652,106.002243 52.383972,105.960785 
	C53.178284,105.944397 53.589272,105.969482 54.000263,105.994568 
	C54.774975,106.341599 55.549690,106.688644 56.800125,107.324165 
	C57.807148,107.821960 58.338451,108.031273 58.869755,108.240585 
	C59.309784,108.521805 59.749813,108.803017 60.612694,109.330498 
	C61.352386,109.721138 61.669239,109.865509 61.986092,110.009880 
	C61.986092,110.009880 61.999542,110.000305 62.087387,110.214844 
	C62.380772,110.687492 62.648010,110.803741 62.976948,110.778122 
	C62.976948,110.778122 63.378574,110.991768 63.732704,111.262131 
	C64.390617,111.683655 64.694405,111.834831 64.998192,111.986000 
	C65.458336,112.350883 65.918472,112.715759 66.669983,113.166122 
z"/>
<path fill="#E9BE49" opacity="1.000000" stroke="none" 
	d="
M49.075806,54.685081 
	C49.145123,52.511288 48.771549,49.691055 49.875439,47.683056 
	C51.953938,43.902225 54.884449,40.589787 57.822838,37.092247 
	C55.223240,42.869675 52.261551,48.637482 49.075806,54.685081 
z"/>
<path fill="#EBC565" opacity="1.000000" stroke="none" 
	d="
M59.405106,160.836060 
	C62.336864,160.159332 65.724442,159.588120 69.569191,159.013855 
	C70.354675,159.391235 70.682999,159.771667 71.051743,160.409378 
	C67.348419,160.758301 63.604675,160.849930 59.405106,160.836060 
z"/>
<path fill="#E2FBED" opacity="1.000000" stroke="none" 
	d="
M97.469620,88.921875 
	C95.080414,91.494461 92.319221,94.069832 89.255585,96.778351 
	C89.839851,92.385017 92.480713,89.647308 97.469620,88.921875 
z"/>
<path fill="#F0FBE7" opacity="1.000000" stroke="none" 
	d="
M32.923962,79.751236 
	C31.742401,80.200920 30.510689,80.285355 29.051058,80.385399 
	C29.447140,81.834335 29.774759,83.032822 30.098713,84.609924 
	C28.981501,83.440346 27.867958,81.892151 26.754414,80.343956 
	C27.007610,79.779984 27.260807,79.216003 27.514004,78.652031 
	C29.300606,78.896683 31.087208,79.141327 32.923962,79.751236 
z"/>
<path fill="#F0FBE7" opacity="1.000000" stroke="none" 
	d="
M21.899143,98.188965 
	C20.291916,98.642090 18.548853,98.776794 16.366165,98.935982 
	C16.440361,96.581635 17.533543,96.377502 21.899143,98.188965 
z"/>
<path fill="#F0FBE7" opacity="1.000000" stroke="none" 
	d="
M50.983585,98.986801 
	C50.983585,98.986801 51.132805,99.426857 51.204105,99.647827 
	C48.675907,99.154793 46.076405,98.440781 43.483315,97.380814 
	C43.655918,96.975563 43.822117,96.916275 44.234146,96.973602 
	C44.835682,97.130333 45.191387,97.170464 45.812614,97.457474 
	C47.007568,97.934097 47.937004,98.163849 49.092766,98.564636 
	C49.873924,98.819374 50.428753,98.903084 50.983585,98.986801 
z"/>
<path fill="#E2FBED" opacity="1.000000" stroke="none" 
	d="
M106.781700,97.705292 
	C108.603149,96.997437 110.892235,96.407768 113.581909,95.849609 
	C112.672890,99.768974 109.545677,97.356117 106.781700,97.705292 
z"/>
<path fill="#E9BE49" opacity="1.000000" stroke="none" 
	d="
M66.485825,31.882339 
	C67.569489,31.878969 68.299866,31.916805 69.390900,31.934296 
	C67.381866,32.807911 65.012177,33.701866 62.287537,34.629669 
	C63.332565,33.750195 64.732544,32.836872 66.485825,31.882339 
z"/>
<path fill="#E2FBED" opacity="1.000000" stroke="none" 
	d="
M75.185005,119.927498 
	C74.962685,119.921127 74.934303,119.534782 74.929886,119.341721 
	C76.342804,118.084717 77.760147,117.020767 79.624062,116.022133 
	C80.070641,116.087456 80.264076,116.303589 80.084061,116.568573 
	C78.553009,117.856094 77.201973,118.878632 75.850945,119.901169 
	C75.850945,119.901169 75.407326,119.933868 75.185005,119.927498 
z"/>
<path fill="#F0FBE7" opacity="1.000000" stroke="none" 
	d="
M54.822594,89.073990 
	C53.230801,88.542480 51.660427,87.619217 49.896881,86.413589 
	C51.417145,86.981560 53.130581,87.831894 54.822594,89.073990 
z"/>
<path fill="#E2FBED" opacity="1.000000" stroke="none" 
	d="
M84.772888,112.725853 
	C84.851456,112.045135 84.930016,111.364418 85.006683,110.339432 
	C85.004784,109.995163 84.999420,110.000542 85.383194,110.005554 
	C86.788094,109.953583 87.809227,109.896591 88.830360,109.839600 
	C88.830360,109.839607 89.022964,110.040070 88.945709,110.395203 
	C87.898346,111.463997 86.928238,112.177673 85.711411,112.892899 
	C85.464684,112.894447 84.976624,112.967239 84.922501,112.909576 
	C84.868378,112.851921 84.772888,112.725853 84.772888,112.725853 
z"/>
<path fill="#F0FBE7" opacity="1.000000" stroke="none" 
	d="
M37.064476,96.318344 
	C38.024826,96.071556 39.032200,96.169296 40.484825,96.427521 
	C40.930073,96.587997 41.007778,96.976524 41.007778,96.976524 
	C39.709019,96.871971 38.410263,96.767426 37.064476,96.318344 
z"/>
<path fill="#F0FBE7" opacity="1.000000" stroke="none" 
	d="
M34.941635,99.636734 
	C33.831436,99.864265 32.661190,99.747513 31.225647,99.400848 
	C32.267429,99.211433 33.574509,99.251938 34.941635,99.636734 
z"/>
<path fill="#E2FBED" opacity="1.000000" stroke="none" 
	d="
M99.050125,99.890396 
	C100.183052,99.215530 101.732246,98.601280 103.641663,98.025787 
	C102.490051,98.693367 100.978226,99.322189 99.050125,99.890396 
z"/>
<path fill="#F0FBE7" opacity="1.000000" stroke="none" 
	d="
M30.150234,85.875481 
	C30.802940,86.739227 31.393833,88.018799 31.978344,89.650467 
	C31.344116,88.765488 30.716267,87.528389 30.150234,85.875481 
z"/>
<path fill="#F0FBE7" opacity="1.000000" stroke="none" 
	d="
M52.081108,100.444954 
	C53.282078,100.497841 54.559322,100.915466 56.045830,101.602707 
	C54.889187,101.518112 53.523285,101.163902 52.081108,100.444954 
z"/>
<path fill="#E2FBED" opacity="1.000000" stroke="none" 
	d="
M105.735901,84.069046 
	C105.029617,84.792793 103.929596,85.468536 102.503906,86.186981 
	C103.232880,85.493477 104.287521,84.757263 105.735901,84.069046 
z"/>
<path fill="#F0FBE7" opacity="1.000000" stroke="none" 
	d="
M60.089462,104.287415 
	C61.278622,104.399635 62.513168,104.875381 63.864979,105.664825 
	C62.699776,105.536003 61.417313,105.093475 60.089462,104.287415 
z"/>
<path fill="#E2FBED" opacity="1.000000" stroke="none" 
	d="
M120.445198,86.931282 
	C120.493698,85.719650 120.909569,84.430740 121.597687,82.931824 
	C121.517479,84.099213 121.165024,85.476601 120.445198,86.931282 
z"/>
<path fill="#E2FBED" opacity="1.000000" stroke="none" 
	d="
M110.213173,82.219231 
	C109.360893,82.906479 108.081802,83.507576 106.449860,84.126785 
	C107.326797,83.474297 108.556580,82.803688 110.213173,82.219231 
z"/>
<path fill="#F0FBE7" opacity="1.000000" stroke="none" 
	d="
M44.926071,83.501755 
	C43.710869,83.470024 42.407265,83.072975 40.875603,82.415222 
	C42.044254,82.481834 43.440964,82.809128 44.926071,83.501755 
z"/>
<path fill="#E2FBED" opacity="1.000000" stroke="none" 
	d="
M94.117294,101.918289 
	C94.919128,101.242508 96.114052,100.612938 97.652573,100.001312 
	C96.834244,100.667671 95.672310,101.316093 94.117294,101.918289 
z"/>
<path fill="#E2FBED" opacity="1.000000" stroke="none" 
	d="
M79.972488,115.980690 
	C80.645638,115.224358 81.416954,114.574791 82.575394,113.939606 
	C82.962509,113.953972 83.068893,114.081764 82.926453,114.352486 
	C81.944031,115.183334 81.104050,115.743462 80.264069,116.303589 
	C80.264076,116.303589 80.070641,116.087456 79.972488,115.980690 
z"/>
<path fill="#F0FBE7" opacity="1.000000" stroke="none" 
	d="
M65.938652,99.716721 
	C65.206673,99.333633 64.495567,98.562134 63.677948,97.487335 
	C64.367470,97.898796 65.163498,98.613548 65.938652,99.716721 
z"/>
<path fill="#E2FBED" opacity="1.000000" stroke="none" 
	d="
M101.827606,86.136459 
	C101.362053,86.803711 100.525520,87.408173 99.375488,88.053955 
	C99.860199,87.421410 100.658417,86.747536 101.827606,86.136459 
z"/>
<path fill="#E2FBED" opacity="1.000000" stroke="none" 
	d="
M118.476395,91.923477 
	C118.446442,90.945946 118.794670,89.879807 119.383240,88.567123 
	C119.367256,89.492004 119.110924,90.663429 118.476395,91.923477 
z"/>
<path fill="#DBB061" opacity="1.000000" stroke="none" 
	d="
M77.221687,48.746452 
	C77.033195,48.138615 77.029884,47.274868 77.199631,46.230305 
	C77.384071,46.863174 77.395462,47.676861 77.221687,48.746452 
z"/>
<path fill="#E2FBED" opacity="1.000000" stroke="none" 
	d="
M121.861801,79.925766 
	C121.441322,80.258156 121.030922,80.276863 120.327652,80.197296 
	C120.270645,79.561775 120.506516,79.024521 120.742378,78.487274 
	C121.118881,78.862213 121.495384,79.237152 121.861801,79.925766 
z"/>
<path fill="#F0FBE7" opacity="1.000000" stroke="none" 
	d="
M38.344105,81.983170 
	C38.011219,81.979378 37.924042,81.610092 37.909454,81.421036 
	C38.571625,81.277290 39.248375,81.322594 39.961327,81.671494 
	C39.557350,81.979034 39.117168,81.982994 38.344105,81.983170 
z"/>
<path fill="#F0FBE7" opacity="1.000000" stroke="none" 
	d="
M58.885090,107.921448 
	C58.338451,108.031273 57.807148,107.821960 57.116478,107.371475 
	C57.604881,107.287643 58.252655,107.444977 58.885090,107.921448 
z"/>
<path fill="#F0FBE7" opacity="1.000000" stroke="none" 
	d="
M42.974007,101.564117 
	C42.458530,101.754921 41.900959,101.662025 41.157303,101.347687 
	C41.624783,101.177635 42.278347,101.229027 42.974007,101.564117 
z"/>
<path fill="#117954" opacity="1.000000" stroke="none" 
	d="
M97.024879,107.001999 
	C97.024879,107.001999 97.178169,106.585632 97.243500,106.373650 
	C97.921768,106.030746 98.534698,105.899826 99.462410,105.752563 
	C99.777184,105.736221 99.911018,105.900421 99.753616,106.228500 
	C98.739105,106.705055 97.881996,106.853531 97.024879,107.001999 
z"/>
<path fill="#D99744" opacity="1.000000" stroke="none" 
	d="
M98.017754,32.641228 
	C97.527061,32.466663 96.929451,32.018032 96.493622,31.354486 
	C97.073883,31.548767 97.492355,31.957964 98.017754,32.641228 
z"/>
<path fill="#31BD63" opacity="1.000000" stroke="none" 
	d="
M41.343590,96.952438 
	C41.007778,96.976524 40.930073,96.587997 40.864887,96.401642 
	C40.799702,96.215279 40.983360,96.000191 41.380684,95.937401 
	C42.514778,96.202072 43.251545,96.529533 43.988312,96.856995 
	C43.822117,96.916275 43.655918,96.975563 43.239693,97.121506 
	C42.552910,97.114891 42.116158,97.021622 41.343590,96.952438 
z"/>
<path fill="#E2FBED" opacity="1.000000" stroke="none" 
	d="
M113.978935,81.099274 
	C113.754829,81.435692 113.205208,81.725929 112.333893,81.973053 
	C112.559273,81.637657 113.106339,81.345375 113.978935,81.099274 
z"/>
<path fill="#E2FBED" opacity="1.000000" stroke="none" 
	d="
M117.300728,80.266815 
	C117.010376,80.603661 116.358177,80.834312 115.354568,81.017838 
	C115.648399,80.700684 116.293640,80.430656 117.300728,80.266815 
z"/>
<path fill="#F0FBE7" opacity="1.000000" stroke="none" 
	d="
M26.824776,98.624832 
	C26.537817,98.839417 26.106171,98.865936 25.361795,98.801086 
	C25.592741,98.618744 26.136415,98.527756 26.824776,98.624832 
z"/>
<path fill="#E2FBED" opacity="1.000000" stroke="none" 
	d="
M82.910294,113.889282 
	C83.317352,113.515343 83.776642,113.206100 84.504410,112.811356 
	C84.772888,112.725853 84.868378,112.851921 84.816223,113.098129 
	C84.764076,113.344330 84.681335,113.769226 84.675888,113.788010 
	C84.670448,113.806793 84.652672,113.763268 84.382698,113.783997 
	C83.764778,113.897079 83.416840,113.989426 83.068893,114.081764 
	C83.068893,114.081764 82.962509,113.953972 82.910294,113.889282 
z"/>
<path fill="#F0FBE7" opacity="1.000000" stroke="none" 
	d="
M64.182236,106.279877 
	C64.615952,106.147369 65.206947,106.267273 65.913681,106.671387 
	C65.466118,106.814484 64.902817,106.673378 64.182236,106.279877 
z"/>
<path fill="#F0FBE7" opacity="1.000000" stroke="none" 
	d="
M48.785400,103.614487 
	C48.418034,103.719925 47.868652,103.606384 47.140022,103.263657 
	C47.508308,103.154808 48.055847,103.275154 48.785400,103.614487 
z"/>
<path fill="#F0FBE7" opacity="1.000000" stroke="none" 
	d="
M53.836147,105.747704 
	C53.589272,105.969482 53.178284,105.944397 52.461231,105.879669 
	C52.155170,105.840027 52.067936,105.424515 52.040871,105.214035 
	C52.566551,105.169319 53.119293,105.335083 53.836147,105.747704 
z"/>
<path fill="#F0FBE7" opacity="1.000000" stroke="none" 
	d="
M51.822979,104.741226 
	C51.426373,104.838585 50.861637,104.686554 50.127075,104.289291 
	C50.523113,104.193306 51.088982,104.342567 51.822979,104.741226 
z"/>
<path fill="#E2FBED" opacity="1.000000" stroke="none" 
	d="
M86.832672,99.162483 
	C86.943779,99.385262 86.792107,99.720367 86.381622,100.170540 
	C86.271835,99.948669 86.420860,99.611748 86.832672,99.162483 
z"/>
<path fill="#F0FBE7" opacity="1.000000" stroke="none" 
	d="
M33.015770,92.328560 
	C33.243561,92.178574 33.453278,92.317467 33.599693,92.769165 
	C33.377895,92.875420 33.198326,92.720573 33.015770,92.328560 
z"/>
<path fill="#F0FBE7" opacity="1.000000" stroke="none" 
	d="
M32.174770,90.861923 
	C32.402710,90.864182 32.638264,91.155121 32.881172,91.734711 
	C32.653145,91.732437 32.417767,91.441521 32.174770,90.861923 
z"/>
<path fill="#F0FBE7" opacity="1.000000" stroke="none" 
	d="
M35.757553,80.569931 
	C35.588303,80.745918 35.204861,80.721146 34.606239,80.494980 
	C34.775158,80.318779 35.159264,80.343971 35.757553,80.569931 
z"/>
<path fill="#F0FBE7" opacity="1.000000" stroke="none" 
	d="
M57.916656,91.673729 
	C57.659134,91.919586 57.372112,91.784584 57.079937,91.245979 
	C57.326378,91.053062 57.597172,91.203224 57.916656,91.673729 
z"/>
<path fill="#E2FBED" opacity="1.000000" stroke="none" 
	d="
M117.253159,93.853134 
	C117.128433,93.650490 117.240929,93.298462 117.601959,92.811295 
	C117.730453,93.018684 117.610420,93.361221 117.253159,93.853134 
z"/>
<path fill="#E2FBED" opacity="1.000000" stroke="none" 
	d="
M87.770737,98.109146 
	C87.860474,98.318451 87.712265,98.627838 87.310539,99.015747 
	C87.215607,98.799255 87.374199,98.504242 87.770737,98.109146 
z"/>
<path fill="#F0FBE7" opacity="1.000000" stroke="none" 
	d="
M74.115555,161.301056 
	C74.171089,161.095108 74.333168,161.034225 74.753433,161.002548 
	C74.748444,161.169861 74.485268,161.307983 74.115555,161.301056 
z"/>
<path fill="#E2FBED" opacity="1.000000" stroke="none" 
	d="
M88.695221,97.075874 
	C88.777962,97.269829 88.642479,97.569962 88.258141,97.939255 
	C88.049110,97.667252 88.205009,97.391792 88.695221,97.075874 
z"/>
<path fill="#F0FBE7" opacity="1.000000" stroke="none" 
	d="
M59.900700,93.468216 
	C59.678436,93.694313 59.461483,93.597076 59.299828,93.137581 
	C59.502834,93.008942 59.686462,93.132126 59.900700,93.468216 
z"/>
<path fill="#F0FBE7" opacity="1.000000" stroke="none" 
	d="
M35.105373,94.519753 
	C35.322300,94.305931 35.537338,94.405205 35.698299,94.857292 
	C35.500191,94.977074 35.319946,94.851326 35.105373,94.519753 
z"/>
<path fill="#E9BE49" opacity="1.000000" stroke="none" 
	d="
M59.423775,36.204704 
	C59.368999,35.962322 59.588657,35.620346 60.130760,35.256264 
	C60.201542,35.524475 59.949871,35.814793 59.423775,36.204704 
z"/>
<path fill="#E2FBED" opacity="1.000000" stroke="none" 
	d="
M84.714020,102.095001 
	C84.797791,102.286118 84.658165,102.582428 84.272621,102.963226 
	C84.060661,102.699120 84.215302,102.416611 84.714020,102.095001 
z"/>
<path fill="#F0FBE7" opacity="1.000000" stroke="none" 
	d="
M48.843102,85.602005 
	C48.662243,85.727654 48.332706,85.646667 47.873177,85.336540 
	C48.060268,85.203384 48.377346,85.299377 48.843102,85.602005 
z"/>
<path fill="#E2FBED" opacity="1.000000" stroke="none" 
	d="
M83.806351,103.130432 
	C83.883369,103.327995 83.720589,103.632339 83.306297,104.031250 
	C83.225365,103.829620 83.395958,103.533417 83.806351,103.130432 
z"/>
<path fill="#F0FBE7" opacity="1.000000" stroke="none" 
	d="
M46.828270,84.591095 
	C46.650776,84.722748 46.315075,84.648651 45.833893,84.351761 
	C46.015625,84.214432 46.342846,84.299881 46.828270,84.591095 
z"/>
<path fill="#F0FBE7" opacity="1.000000" stroke="none" 
	d="
M61.852459,109.770660 
	C61.669239,109.865509 61.352386,109.721138 60.878353,109.361305 
	C61.053722,109.274376 61.386276,109.402908 61.852459,109.770660 
z"/>
<path fill="#F0FBE7" opacity="1.000000" stroke="none" 
	d="
M62.861626,110.595688 
	C62.648010,110.803741 62.380772,110.687492 62.083450,110.221878 
	C62.289852,110.059189 62.541393,110.192146 62.861626,110.595688 
z"/>
<path fill="#E2FBED" opacity="1.000000" stroke="none" 
	d="
M92.029343,102.888214 
	C92.010040,102.663322 92.245064,102.421326 92.742065,102.183609 
	C92.763916,102.415619 92.523796,102.643372 92.029343,102.888214 
z"/>
<path fill="#F0FBE7" opacity="1.000000" stroke="none" 
	d="
M64.873184,111.755981 
	C64.694405,111.834831 64.390617,111.683655 63.955410,111.308380 
	C64.132050,111.231506 64.440117,111.378738 64.873184,111.755981 
z"/>
<path fill="#E2FBED" opacity="1.000000" stroke="none" 
	d="
M122.244095,81.918655 
	C122.048424,81.830719 122.016388,81.664680 122.067360,81.259186 
	C122.298653,81.191093 122.466064,81.350883 122.581627,81.542015 
	C122.610168,81.589226 122.470230,81.738304 122.244095,81.918655 
z"/>
<path fill="#F0FBE7" opacity="1.000000" stroke="none" 
	d="
M57.176964,102.425781 
	C57.351067,102.295998 57.674107,102.369804 58.138542,102.658180 
	C57.961929,102.791626 57.643913,102.710510 57.176964,102.425781 
z"/>
<path fill="#E2FBED" opacity="1.000000" stroke="none" 
	d="
M98.855911,88.105278 
	C98.891296,88.322693 98.681999,88.582253 98.213181,88.852112 
	C98.073387,88.532600 98.292580,88.294281 98.855911,88.105278 
z"/>
<path fill="#E2FBED" opacity="1.000000" stroke="none" 
	d="
M85.538940,101.091644 
	C85.829674,101.345032 85.727943,101.615158 85.202805,101.869637 
	C84.991005,101.626213 85.113365,101.377678 85.538940,101.091644 
z"/>
<path fill="#F0FBE7" opacity="1.000000" stroke="none" 
	d="
M56.847973,90.766800 
	C56.645538,90.879593 56.304276,90.751778 55.833389,90.375168 
	C56.038895,90.259644 56.374020,90.392906 56.847973,90.766800 
z"/>
<path fill="#F0FBE7" opacity="1.000000" stroke="none" 
	d="
M66.824554,101.013893 
	C66.590515,101.067284 66.300591,100.839714 65.947021,100.334930 
	C66.178467,100.282791 66.473564,100.507858 66.824554,101.013893 
z"/>
<path fill="#FEF3CD" opacity="1.000000" stroke="none" 
	d="
M78.630516,58.445057 
	C82.189255,61.963543 81.863808,64.404694 76.645500,67.272011 
	C77.289818,63.703182 77.779114,60.992996 78.630516,58.445057 
z"/>
<path fill="#F2FCF8" opacity="1.000000" stroke="none" 
	d="
M96.938568,152.421875 
	C92.330360,152.592697 87.715424,152.672394 83.119614,153.011292 
	C82.200523,153.079056 81.354324,154.135315 80.197220,155.035217 
	C79.876205,145.752380 79.832489,136.170120 80.190567,126.194199 
	C82.752365,124.210762 84.912376,122.620964 87.399597,120.945786 
	C89.488190,119.521599 91.249565,118.182793 93.273933,116.882370 
	C93.716698,116.623047 93.896477,116.325340 94.043640,116.016876 
	C94.011024,116.006104 94.023460,116.073662 94.285179,116.002052 
	C94.751244,115.644691 94.955589,115.358940 95.125626,115.067192 
	C95.091309,115.061195 95.130394,115.119102 95.495857,115.143890 
	C97.589134,114.509453 99.316948,113.850220 101.044762,113.190994 
	C105.804344,111.907585 110.563927,110.624176 115.664398,109.154144 
	C118.244904,108.697296 120.505821,108.541008 122.718605,108.127266 
	C125.336418,107.637794 126.350510,108.603149 126.052612,111.591805 
	C126.077446,120.360115 126.020065,128.717438 126.048393,137.536621 
	C126.068497,141.895859 126.080154,145.797043 125.888634,149.688232 
	C125.833549,150.807434 125.192535,151.897827 123.946655,153.001312 
	C118.577309,152.940491 114.081459,152.879761 109.208191,152.611938 
	C106.553558,152.436142 104.276352,152.467438 101.588867,152.388870 
	C99.765251,152.326630 98.351913,152.374252 96.938568,152.421875 
M98.551498,129.881165 
	C104.536247,128.651123 110.520996,127.421082 116.735939,126.143730 
	C116.735939,124.309311 116.735939,122.140266 116.735939,119.769951 
	C106.361115,120.070312 97.276825,123.022514 89.059425,128.429993 
	C87.733765,129.302338 87.375969,131.645508 86.570770,133.308777 
	C86.941742,133.573410 87.312721,133.838058 87.683693,134.102707 
	C91.046799,132.757706 94.409897,131.412720 98.551498,129.881165 
M89.156410,141.637115 
	C88.336243,143.030991 87.516068,144.424850 86.717720,145.781631 
	C97.384018,144.806915 107.060867,143.922623 116.857178,143.027405 
	C116.857178,141.165115 116.857178,139.108307 116.857178,136.783157 
	C107.249367,136.171738 98.372871,137.656982 89.156410,141.637115 
z"/>
<path fill="#FEFCF1" opacity="1.000000" stroke="none" 
	d="
M68.715179,125.353966 
	C69.125046,125.755005 69.534904,126.156044 70.135490,126.986130 
	C70.385437,127.741280 70.542160,128.010712 70.796379,128.223450 
	C70.697502,136.260651 70.598618,144.297836 69.839340,152.626053 
	C64.723679,152.644318 60.265182,152.100250 55.813828,152.153503 
	C45.546150,152.276306 35.281940,152.689011 25.010189,152.990723 
	C25.004059,152.997314 25.016033,152.983765 24.994766,152.516968 
	C24.973501,137.506256 24.973501,122.962357 24.973501,108.099098 
	C28.089779,108.099098 30.545305,108.099098 33.256748,108.193245 
	C33.873611,108.292633 34.234562,108.297874 34.902718,108.531731 
	C40.795834,110.523003 46.381748,112.285652 51.985886,114.027100 
	C52.004112,114.005898 51.959229,114.036766 52.143005,114.310341 
	C53.538044,115.074379 54.749306,115.564842 55.982864,116.032707 
	C56.005154,116.010109 55.954453,116.044029 56.112171,116.300697 
	C56.829266,116.740974 57.388645,116.924583 57.963005,117.058060 
	C57.977993,117.007935 57.911758,117.088951 58.055428,117.370392 
	C59.096539,118.145912 59.993977,118.639984 60.946518,119.110840 
	C61.001617,119.087624 60.890335,119.115868 61.028648,119.409729 
	C62.425945,120.492378 63.684937,121.281174 64.974678,122.041367 
	C65.005432,122.012764 64.938797,122.059418 65.061569,122.359863 
	C66.361290,123.558189 67.538239,124.456078 68.715179,125.353966 
M36.562359,136.136475 
	C30.369789,136.248367 33.509579,140.404297 33.178089,143.069473 
	C43.126209,144.021118 52.744553,144.941238 64.058174,146.023514 
	C62.174435,143.833450 61.171200,141.505127 59.658211,141.105179 
	C52.329636,139.167877 44.864193,137.748352 36.562359,136.136475 
M42.874966,120.484779 
	C39.813469,120.023064 36.751972,119.561348 33.748932,119.108444 
	C32.013271,126.187340 32.311668,126.599579 38.439762,126.996468 
	C40.250038,127.113716 42.092171,127.338341 43.832691,127.824982 
	C49.960262,129.538193 56.050003,131.386703 62.154099,133.183868 
	C62.512253,132.894623 62.870411,132.605377 63.228565,132.316116 
	C62.179447,130.770935 61.476250,128.527710 60.019215,127.805679 
	C54.705151,125.172310 49.139416,123.046814 42.874966,120.484779 
z"/>
<path fill="#F3BA3F" opacity="1.000000" stroke="none" 
	d="
M51.459702,106.116310 
	C58.692719,110.672760 65.538651,115.180458 72.693756,119.850151 
	C71.862030,121.260506 70.721146,122.508865 69.125053,123.583633 
	C67.426163,122.959839 66.182480,122.509628 64.938797,122.059418 
	C64.938797,122.059418 65.005432,122.012764 64.960403,121.674438 
	C63.573700,120.596031 62.232018,119.855949 60.890335,119.115868 
	C60.890335,119.115868 61.001617,119.087624 60.932999,118.747620 
	C59.880169,117.968063 58.895966,117.528511 57.911758,117.088951 
	C57.911758,117.088951 57.977993,117.007935 57.824673,116.779816 
	C57.099052,116.382469 56.526752,116.213249 55.954453,116.044029 
	C55.954453,116.044029 56.005154,116.010109 55.938484,115.666412 
	C54.567623,114.894058 53.263424,114.465416 51.959229,114.036766 
	C51.959229,114.036766 52.004112,114.005898 51.944866,113.668396 
	C48.253918,111.563530 44.622215,109.796158 41.131260,107.730629 
	C41.847904,106.282562 42.423801,105.132645 42.999699,103.982735 
	C45.690674,104.677673 48.381649,105.372612 51.459702,106.116310 
z"/>
<path fill="#EBC565" opacity="1.000000" stroke="none" 
	d="
M25.016323,152.984100 
	C35.281940,152.689011 45.546150,152.276306 55.813828,152.153503 
	C60.265182,152.100250 64.723679,152.644318 69.606674,152.964218 
	C70.036026,153.180435 70.037628,153.349503 70.028778,153.772278 
	C63.990520,154.015228 57.962711,154.004486 50.998138,153.990540 
	C42.319233,154.268188 34.577946,154.590759 26.833307,154.747375 
	C26.239775,154.759384 25.622541,153.599350 25.016323,152.984100 
z"/>
<path fill="#21A455" opacity="1.000000" stroke="none" 
	d="
M87.072388,121.031158 
	C84.912376,122.620964 82.752365,124.210762 80.248146,125.703476 
	C78.600403,123.923592 77.296867,122.240784 75.922134,120.229568 
	C77.201973,118.878632 78.553009,117.856094 80.084061,116.568565 
	C81.104050,115.743462 81.944031,115.183334 82.926453,114.352486 
	C83.416840,113.989426 83.764778,113.897079 84.480034,114.218597 
	C85.589020,116.765366 86.330704,118.898262 87.072388,121.031158 
z"/>
<path fill="#EBC565" opacity="1.000000" stroke="none" 
	d="
M65.061569,122.359863 
	C66.182480,122.509628 67.426163,122.959839 68.833939,123.717346 
	C68.968781,124.249474 68.939514,124.474297 68.812714,125.026550 
	C67.538239,124.456078 66.361290,123.558189 65.061569,122.359863 
z"/>
<path fill="#EBC565" opacity="1.000000" stroke="none" 
	d="
M70.840317,127.981201 
	C70.542160,128.010712 70.385437,127.741280 70.348312,127.178864 
	C70.675591,127.121536 70.846863,127.387001 70.840317,127.981201 
z"/>
<path fill="#EDA923" opacity="1.000000" stroke="none" 
	d="
M81.976944,31.025261 
	C79.606628,30.985365 77.236305,30.945469 74.422493,30.855814 
	C73.651741,28.873413 73.324493,26.940771 72.994850,24.636032 
	C73.444710,24.230326 73.896950,24.196722 74.733475,24.477196 
	C75.462296,25.050713 75.806847,25.310150 76.151390,25.569588 
	C76.434669,25.045864 76.717941,24.522142 77.001221,23.998419 
	C79.734695,24.664415 82.468178,25.330412 85.563690,26.343790 
	C84.609467,28.135870 83.293205,29.580566 81.976944,31.025261 
z"/>
<path fill="#F4BE3B" opacity="1.000000" stroke="none" 
	d="
M25.010193,152.990707 
	C25.622541,153.599350 26.239775,154.759384 26.833307,154.747375 
	C34.577946,154.590759 42.319233,154.268188 50.529755,153.993683 
	C50.998806,155.392868 50.999474,156.785721 51.001617,158.597137 
	C41.572445,159.332855 32.138008,159.568893 22.713072,160.008575 
	C19.133793,160.175552 17.169033,158.572540 17.204966,155.216461 
	C17.334455,143.121933 17.696318,131.029892 18.340687,118.425507 
	C19.397785,116.507240 20.088957,115.102478 20.769854,113.692757 
	C21.204023,112.793846 21.622974,111.887596 22.340687,111.283669 
	C22.764257,123.781395 22.824478,135.981781 23.113325,148.176743 
	C23.151611,149.793198 24.353195,151.382095 25.016033,152.983765 
	C25.016033,152.983765 25.004059,152.997314 25.010193,152.990707 
z"/>
<path fill="#F4C13D" opacity="1.000000" stroke="none" 
	d="
M22.048748,110.984634 
	C21.622974,111.887596 21.204023,112.793846 20.769854,113.692757 
	C20.088957,115.102478 19.397785,116.507240 18.344538,117.956833 
	C17.978067,113.220299 18.086672,108.437614 17.936640,103.663048 
	C17.848713,100.864845 18.945827,99.563858 21.683285,100.015152 
	C24.976936,100.558121 28.237127,101.305611 31.509193,101.977272 
	C33.076458,102.299004 34.637711,102.650024 36.596214,103.354492 
	C36.658634,105.132133 36.326523,106.543068 35.639488,108.020447 
	C35.054878,108.158958 34.825195,108.231041 34.595509,108.303116 
	C34.234562,108.297874 33.873611,108.292633 33.067352,107.890457 
	C25.933733,104.310539 23.216637,105.207680 22.048748,110.984634 
z"/>
<path fill="#F2BE40" opacity="1.000000" stroke="none" 
	d="
M35.994415,107.954002 
	C36.326523,106.543068 36.658634,105.132133 36.993477,103.353409 
	C38.788181,103.228531 40.580151,103.471451 42.685909,103.848557 
	C42.423801,105.132645 41.847904,106.282562 40.715263,107.727242 
	C38.770489,107.999336 37.382450,107.976669 35.994415,107.954002 
z"/>
<path fill="#04BC4F" opacity="1.000000" stroke="none" 
	d="
M44.234146,96.973602 
	C43.251545,96.529533 42.514778,96.202072 41.465969,95.824593 
	C34.889412,93.496719 36.135418,86.514656 31.577480,82.180038 
	C34.228336,82.180038 35.673992,82.180038 37.497345,82.279343 
	C41.427868,84.495857 45.236996,86.285858 48.466625,88.815659 
	C52.240135,91.771461 55.508022,95.372772 58.487423,99.633270 
	C56.135616,99.240860 53.783810,98.848450 51.207794,98.721420 
	C50.428753,98.903084 49.873924,98.819374 49.105843,98.207428 
	C47.777428,97.522987 46.662262,97.366791 45.547092,97.210594 
	C45.191387,97.170464 44.835682,97.130333 44.234146,96.973602 
z"/>
<path fill="#EBA329" opacity="1.000000" stroke="none" 
	d="
M82.229416,31.290594 
	C83.293205,29.580566 84.609467,28.135870 85.959610,26.356106 
	C88.437294,27.619263 91.070930,29.003347 93.232742,30.919693 
	C94.114006,31.700893 93.971794,33.636669 94.295227,35.047150 
	C92.808945,35.003815 91.206078,35.302273 89.861458,34.843624 
	C87.323120,33.977798 84.933380,32.676331 82.229416,31.290594 
z"/>
<path fill="#F3B31A" opacity="1.000000" stroke="none" 
	d="
M76.669388,24.013939 
	C76.717941,24.522142 76.434669,25.045864 76.151390,25.569588 
	C75.806847,25.310150 75.462296,25.050713 75.072411,24.516684 
	C75.463898,24.171215 75.900726,24.100338 76.669388,24.013939 
z"/>
<path fill="#0F655A" opacity="1.000000" stroke="none" 
	d="
M109.585617,152.819031 
	C114.081459,152.879761 118.577309,152.940491 123.524582,153.104919 
	C122.049179,155.049606 120.122337,156.890594 117.561684,159.337158 
	C120.080536,159.763702 121.736137,160.044067 123.664703,160.562988 
	C115.939972,160.840775 107.942291,160.880051 99.478203,160.865967 
	C99.011795,160.812607 99.003067,160.404388 99.413071,160.201324 
	C101.218849,159.983261 102.614632,159.968231 104.402206,159.959900 
	C113.574295,157.815536 113.574295,157.815536 109.585617,152.819031 
z"/>
<path fill="#0D884D" opacity="1.000000" stroke="none" 
	d="
M101.171967,112.848801 
	C99.316948,113.850220 97.589134,114.509453 95.457489,114.749329 
	C94.061386,112.652946 93.069107,110.975922 92.076828,109.298897 
	C93.495102,108.540230 94.913368,107.781570 96.678261,107.012451 
	C97.881996,106.853531 98.739105,106.705055 99.818085,106.312546 
	C102.799042,106.418793 106.288826,104.631325 108.142204,108.573532 
	C105.637863,110.012924 103.468513,111.259773 101.171967,112.848801 
z"/>
<path fill="#05525C" opacity="1.000000" stroke="none" 
	d="
M120.450562,101.540466 
	C120.416954,101.486603 120.484169,101.594330 120.450562,101.540466 
z"/>
<path fill="#038D4C" opacity="1.000000" stroke="none" 
	d="
M95.971588,159.974762 
	C93.809128,159.988541 91.618065,159.784302 89.490433,160.063477 
	C85.587524,160.575607 83.272873,158.966949 81.887077,154.443161 
	C84.411621,154.268250 86.731842,154.107483 89.930901,153.967010 
	C92.727585,153.987274 94.645432,153.987274 97.204124,153.987274 
	C96.676964,156.548157 96.324272,158.261444 95.971588,159.974762 
z"/>
<path fill="#057D4E" opacity="1.000000" stroke="none" 
	d="
M96.348457,159.990921 
	C96.324272,158.261444 96.676964,156.548157 97.204124,153.987274 
	C94.645432,153.987274 92.727585,153.987274 90.367523,153.975037 
	C92.067101,153.596634 94.208908,153.230453 96.644638,152.643066 
	C98.351913,152.374252 99.765251,152.326630 101.698936,152.700287 
	C106.303703,154.484451 104.633904,157.355988 104.010414,159.953217 
	C102.614632,159.968231 101.218849,159.983261 99.403542,159.997406 
	C98.231117,160.000046 97.478226,160.003571 96.348457,159.990921 
z"/>
<path fill="#0C9D4C" opacity="1.000000" stroke="none" 
	d="
M91.774872,109.340935 
	C93.069107,110.975922 94.061386,112.652946 95.092026,114.724533 
	C95.130394,115.119102 95.091309,115.061195 94.871490,115.150101 
	C94.442268,115.517227 94.232864,115.795448 94.023468,116.073669 
	C94.023460,116.073662 94.011024,116.006104 93.823502,116.091324 
	C93.350029,116.326347 93.141685,116.548828 93.010941,116.843987 
	C91.249565,118.182793 89.488190,119.521599 87.399597,120.945778 
	C86.330704,118.898262 85.589020,116.765366 84.750008,114.197868 
	C84.652672,113.763268 84.670448,113.806793 84.959732,113.767708 
	C85.485397,113.449532 85.721771,113.170441 85.958145,112.891342 
	C86.928238,112.177673 87.898346,111.463997 89.039230,110.498024 
	C89.964310,109.958138 90.718613,109.670555 91.774872,109.340935 
z"/>
<path fill="#FEFEFD" opacity="1.000000" stroke="none" 
	d="
M88.816238,109.505226 
	C87.809227,109.896591 86.788094,109.953583 85.380257,110.008240 
	C85.738403,107.334648 87.065765,107.320114 88.816238,109.505226 
z"/>
<path fill="#18AD57" opacity="1.000000" stroke="none" 
	d="
M45.812614,97.457474 
	C46.662262,97.366791 47.777428,97.522987 48.879517,98.036392 
	C47.937004,98.163849 47.007568,97.934097 45.812614,97.457474 
z"/>
<path fill="#21A455" opacity="1.000000" stroke="none" 
	d="
M85.711411,112.892899 
	C85.721771,113.170441 85.485397,113.449532 84.965179,113.748924 
	C84.681335,113.769226 84.764076,113.344330 84.870346,113.155785 
	C84.976624,112.967239 85.464684,112.894447 85.711411,112.892899 
z"/>
<path fill="#1B9F59" opacity="1.000000" stroke="none" 
	d="
M98.162247,129.974457 
	C94.409897,131.412720 91.046799,132.757706 87.683693,134.102707 
	C87.312721,133.838058 86.941742,133.573410 86.570770,133.308777 
	C87.375969,131.645508 87.733765,129.302338 89.059425,128.429993 
	C97.276825,123.022514 106.361115,120.070312 116.735939,119.769951 
	C116.735939,122.140266 116.735939,124.309311 116.735939,126.143730 
	C110.520996,127.421082 104.536247,128.651123 98.162247,129.974457 
z"/>
<path fill="#1E8D5D" opacity="1.000000" stroke="none" 
	d="
M89.495049,141.455841 
	C98.372871,137.656982 107.249367,136.171738 116.857178,136.783157 
	C116.857178,139.108307 116.857178,141.165115 116.857178,143.027405 
	C107.060867,143.922623 97.384018,144.806915 86.717720,145.781631 
	C87.516068,144.424850 88.336243,143.030991 89.495049,141.455841 
z"/>
<path fill="#046F4F" opacity="1.000000" stroke="none" 
	d="
M104.402206,159.959900 
	C104.633904,157.355988 106.303703,154.484451 102.109207,152.810150 
	C104.276352,152.467438 106.553558,152.436142 109.208191,152.611938 
	C113.574295,157.815536 113.574295,157.815536 104.402206,159.959900 
z"/>
<path fill="#0D884D" opacity="1.000000" stroke="none" 
	d="
M94.285187,116.002060 
	C94.232864,115.795448 94.442268,115.517227 94.905807,115.156097 
	C94.955589,115.358940 94.751244,115.644691 94.285187,116.002060 
z"/>
<path fill="#0D884D" opacity="1.000000" stroke="none" 
	d="
M93.273933,116.882370 
	C93.141685,116.548828 93.350029,116.326347 93.856125,116.102089 
	C93.896477,116.325340 93.716698,116.623047 93.273933,116.882370 
z"/>
<path fill="#ECC05A" opacity="1.000000" stroke="none" 
	d="
M37.004807,136.140900 
	C44.864193,137.748352 52.329636,139.167877 59.658211,141.105179 
	C61.171200,141.505127 62.174435,143.833450 64.058174,146.023514 
	C52.744553,144.941238 43.126209,144.021118 33.178089,143.069473 
	C33.509579,140.404297 30.369789,136.248367 37.004807,136.140900 
z"/>
<path fill="#EEC158" opacity="1.000000" stroke="none" 
	d="
M43.271744,120.607353 
	C49.139416,123.046814 54.705151,125.172310 60.019215,127.805679 
	C61.476250,128.527710 62.179447,130.770935 63.228565,132.316116 
	C62.870411,132.605377 62.512253,132.894623 62.154099,133.183868 
	C56.050003,131.386703 49.960262,129.538193 43.832691,127.824982 
	C42.092171,127.338341 40.250038,127.113716 38.439762,126.996468 
	C32.311668,126.599579 32.013271,126.187340 33.748932,119.108444 
	C36.751972,119.561348 39.813469,120.023064 43.271744,120.607353 
z"/>
<path fill="#EBC565" opacity="1.000000" stroke="none" 
	d="
M22.340687,111.283669 
	C23.216637,105.207680 25.933733,104.310539 32.811436,107.796310 
	C30.545305,108.099098 28.089779,108.099098 24.973501,108.099098 
	C24.973501,122.962357 24.973501,137.506256 24.994766,152.516968 
	C24.353195,151.382095 23.151611,149.793198 23.113325,148.176743 
	C22.824478,135.981781 22.764257,123.781395 22.340687,111.283669 
z"/>
<path fill="#EBC565" opacity="1.000000" stroke="none" 
	d="
M35.639488,108.020447 
	C37.382450,107.976669 38.770489,107.999336 40.574516,108.025398 
	C44.622215,109.796158 48.253918,111.563530 51.926640,113.689606 
	C46.381748,112.285652 40.795834,110.523003 34.902718,108.531731 
	C34.825195,108.231041 35.054878,108.158958 35.639488,108.020447 
z"/>
<path fill="#EBC565" opacity="1.000000" stroke="none" 
	d="
M61.028648,119.409729 
	C62.232018,119.855949 63.573700,120.596031 64.929657,121.703049 
	C63.684937,121.281174 62.425945,120.492378 61.028648,119.409729 
z"/>
<path fill="#EBC565" opacity="1.000000" stroke="none" 
	d="
M52.143005,114.310341 
	C53.263424,114.465416 54.567623,114.894058 55.916195,115.689011 
	C54.749306,115.564842 53.538044,115.074379 52.143005,114.310341 
z"/>
<path fill="#EBC565" opacity="1.000000" stroke="none" 
	d="
M58.055428,117.370392 
	C58.895966,117.528511 59.880169,117.968063 60.877899,118.770836 
	C59.993977,118.639984 59.096539,118.145912 58.055428,117.370392 
z"/>
<path fill="#EBC565" opacity="1.000000" stroke="none" 
	d="
M56.112171,116.300697 
	C56.526752,116.213249 57.099052,116.382469 57.809685,116.829941 
	C57.388645,116.924583 56.829266,116.740974 56.112171,116.300697 
z"/>
</svg>